<svg width="64" height="62" viewBox="0 0 64 62" fill="none" xmlns="http://www.w3.org/2000/svg">
<path d="M37.1962 54.5771C49.6064 54.5771 55.2029 47.0431 55.2029 39.7824C55.2029 31.8438 48.4545 27.0216 42.9231 25.1298C46.6288 22.1447 49.802 18.8205 49.802 13.2547C49.802 10.0399 48.0741 4.44131 38.9892 3.29316C36.1203 2.96512 16.2879 3.28223 16.1575 3.28223C11.9085 3.28223 8.4202 3.22755 6.50759 2.93231C3.97557 2.65894 1.81302 2.22155 0.878455 0.471995C0.324235 -0.59961 -0.240852 0.373582 0.106894 1.21556C0.389437 1.90445 0.954525 2.74642 1.76955 3.64307C5.00794 6.77041 12.441 6.7048 14.0059 11.0678C14.7883 13.2547 13.4299 15.1792 11.5064 15.3979C11.3 15.4417 11.2565 15.5182 11.2456 15.6385V15.6604C11.2565 18.1316 11.2565 21.2918 11.2565 27.0216V37.1581C11.2565 44.7687 11.2565 51.3076 10.8436 54.7849C10.5175 57.1796 10.1046 59.0057 8.4528 59.3337C7.71384 59.4978 6.72493 59.6618 5.48609 59.6618C4.49719 59.6618 4.17118 59.9133 4.17118 60.3288C4.17118 60.9083 4.74713 61.1598 5.8121 61.1598C7.45303 61.1598 9.59384 60.9958 11.4847 60.9958C13.4625 60.9083 15.2664 60.9083 16.1684 60.9083C19.5372 60.9083 30.1217 60.9958 33.8165 61.1598C37.5222 61.2364 41.793 61.4113 47.7155 61.4113C51.9971 61.4113 52.4101 60.9958 52.8991 59.1806C53.5511 56.7859 55.0073 51.2202 55.1594 50.3235C55.3333 49.3503 55.3224 48.9239 54.7465 48.8254C54.1053 48.7052 53.9967 49.23 53.6381 49.8861C52.2905 52.3246 50.6061 53.5493 49.1825 54.4568C46.6288 56.0861 43.9229 56.775 39.5543 56.775C33.1428 56.775 24.623 56.1955 23.2211 54.9489C23.2211 54.9489 23.2103 54.938 23.1994 54.927C22.2105 54.2053 21.3194 52.7292 21.3194 49.9517V7.72173C21.3194 6.11432 23.9601 6.12526 23.9601 8.07164C23.9601 10.018 24.1448 24.7581 24.1448 24.7581V27.623C24.1448 27.623 24.047 48.1038 24.047 48.8145C23.8623 51.5591 24.9925 53.8554 29.8718 54.2163C32.2625 54.3803 34.3925 54.4787 37.131 54.5662M31.4584 7.13126C31.4584 6.38769 31.5996 6.11432 32.0669 5.97217C32.7407 5.84096 33.3492 5.84096 34.2947 5.84096C40.0977 5.84096 42.7275 11.8113 42.7275 16.3602C42.7275 19.6843 41.7169 22.1337 39.9564 23.5552C38.8045 24.5722 37.3266 24.8455 35.0988 24.8455C33.5448 24.8455 32.5342 24.7799 31.9257 24.6378C31.654 24.5722 31.4475 24.441 31.4475 23.8942V7.13126H31.4584ZM31.4584 28.1041C31.4584 27.7651 31.5996 27.6339 31.8605 27.6339C32.8711 27.6339 33.5448 27.6339 34.762 27.6995C37.3918 27.8307 38.9458 28.3119 40.3585 29.3288C45.4878 32.9263 46.9005 38.6233 46.9005 42.8332C46.9005 49.8971 41.7712 51.5154 38.7393 51.5154C37.1853 51.5154 35.6313 51.4498 33.8165 50.7062C31.654 49.8205 31.4584 48.6724 31.4584 44.1891V28.1041Z" fill="#DA2919"/>
<path d="M56.7786 57.7919H59.5388V58.3059H58.4521V61.2254H57.8544V58.3059H56.7786V57.7919Z" fill="#DA2919"/>
<path d="M59.9302 57.7919H60.7778L61.7232 60.4819L62.6469 57.7919H63.4837V61.2254H62.9078V58.5792H62.8969L61.9515 61.2254H61.4624L60.517 58.5792H60.5061V61.2254H59.9302V57.7919Z" fill="#DA2919"/>
</svg>
